<?xml version="1.0" encoding="UTF-8" standalone="no"?>
<!-- Created with Fritzing (http://www.fritzing.org/) -->

<svg
   xmlns:dc="http://purl.org/dc/elements/1.1/"
   xmlns:cc="http://creativecommons.org/ns#"
   xmlns:rdf="http://www.w3.org/1999/02/22-rdf-syntax-ns#"
   xmlns:svg="http://www.w3.org/2000/svg"
   xmlns="http://www.w3.org/2000/svg"
   xmlns:sodipodi="http://sodipodi.sourceforge.net/DTD/sodipodi-0.dtd"
   xmlns:inkscape="http://www.inkscape.org/namespaces/inkscape"
   x="0in"
   version="1.2"
   y="0in"
   height="50mm"
   width="50.16mm"
   viewBox="0 0 142.18583 141.73228"
   id="svg143"
   sodipodi:docname="RL-09B-A1-door-chime.svg"
   inkscape:version="0.92.2 5c3e80d, 2017-08-06">
  <metadata
     id="metadata149">
    <rdf:RDF>
      <cc:Work
         rdf:about="">
        <dc:format>image/svg+xml</dc:format>
        <dc:type
           rdf:resource="http://purl.org/dc/dcmitype/StillImage" />
        <dc:title></dc:title>
      </cc:Work>
    </rdf:RDF>
  </metadata>
  <defs
     id="defs147" />
  <sodipodi:namedview
     pagecolor="#ffffff"
     bordercolor="#666666"
     borderopacity="1"
     objecttolerance="10"
     gridtolerance="10"
     guidetolerance="10"
     inkscape:pageopacity="0"
     inkscape:pageshadow="2"
     inkscape:window-width="1834"
     inkscape:window-height="993"
     id="namedview145"
     showgrid="false"
     inkscape:pagecheckerboard="true"
     showborder="true"
     borderlayer="false"
     inkscape:document-units="mm"
     inkscape:snap-to-guides="true"
     inkscape:snap-grids="true"
     inkscape:zoom="3.7132457"
     inkscape:cx="109.35525"
     inkscape:cy="72.720697"
     inkscape:window-x="67"
     inkscape:window-y="22"
     inkscape:window-maximized="0"
     inkscape:current-layer="breadboard"
     units="mm" />
  <desc
     id="desc2">
    <referenceFile>TEMT6000_Breakout-v12_breadboard.svg</referenceFile>
  </desc>
  <desc
     id="desc4">Fritzing breadboard generated by brd2svg</desc>
  <g
     id="breadboard"
     gorn="0.1"
     style="stroke-width:0"
     transform="translate(0,112.93226)">
    <rect
       style="opacity:0.94100001;fill:#ff0000;fill-opacity:0.97902096;stroke-width:0"
       id="rect8579"
       width="136.84314"
       height="141.58772"
       x="4.4280853"
       y="-112.92228" />
    <g
       id="g20"
       style="stroke-width:0"
       transform="matrix(3.6582962,0,0,3.3524282,-2.3512275,-66.425375)">
      <title
         id="title16">text:GND</title>
      <text
         font-size="3.3408"
         x="7.9200001"
         y="15.84"
         id="text18"
         style="font-size:3.34080005px;font-family:OCRA;text-anchor:start;fill:#ffffff;stroke:none;stroke-width:0">GND</text>
    </g>
    <g
       id="g26"
       style="stroke-width:0"
       transform="matrix(3.6582962,0,0,3.3524282,-3.0371595,-64.068205)">
      <title
         id="title22">text:VCC</title>
      <text
         font-size="3.3408"
         x="7.9200001"
         y="23.040001"
         id="text24"
         style="font-size:3.34080005px;font-family:OCRA;text-anchor:start;fill:#ffffff;stroke:none;stroke-width:0">+3V</text>
    </g>
    <g
       id="g32"
       style="stroke-width:0"
       transform="matrix(3.6582962,0,0,3.3524282,-2.6941925,-121.11184)">
      <title
         id="title28">text:SIG</title>
      <text
         font-size="3.3408"
         x="7.9200001"
         y="8.6400003"
         id="text30"
         style="font-size:3.34080005px;font-family:OCRA;text-anchor:start;fill:#ffffff;stroke:none;stroke-width:0">SPEAKER</text>
    </g>
    <g
       id="g40"
       style="stroke-width:0"
       transform="matrix(3.6582962,0,0,3.3524282,32.459747,-81.197005)">
      <title
         id="title34">element:E$1</title>
      <g
         id="g38"
         style="stroke-width:0">
        <title
           id="title36">package:FIDUCIAL-1X2</title>
      </g>
    </g>
    <g
       id="g48"
       style="stroke-width:0"
       transform="matrix(3.6582962,0,0,3.3524282,32.459747,-81.197005)">
      <title
         id="title42">element:E$2</title>
      <g
         id="g46"
         style="stroke-width:0">
        <title
           id="title44">package:FIDUCIAL-1X2</title>
      </g>
    </g>
    <g
       id="g104"
       style="stroke-width:0"
       transform="matrix(3.6582962,0,0,3.3524282,32.459747,-81.197005)">
      <title
         id="title98">element:R1</title>
      <g
         id="g102"
         style="stroke-width:0">
        <title
           id="title100">package:0402-RES</title>
      </g>
    </g>
    <g
       id="g112"
       style="stroke-width:0"
       transform="matrix(3.6582962,0,0,3.3524282,32.459747,-81.197005)">
      <title
         id="title106">element:U$1</title>
      <g
         id="g110"
         style="stroke-width:0">
        <title
           id="title108">package:SFE-LOGO-FLAME</title>
      </g>
    </g>
    <ellipse
       style="fill:#ffffff;fill-rule:evenodd;stroke-width:0"
       id="ellipse8724"
       cx="15.909903"
       cy="-17.869019"
       rx="6.2313786"
       ry="5.5684657" />
    <ellipse
       style="fill:none;stroke:#9a916c;stroke-width:4.286479"
       gorn="0.1.0.4"
       connectorname="VCC"
       cy="-17.741833"
       id="connector2pin"
       cx="15.963115"
       rx="7.506824"
       ry="6.8791828" />
    <ellipse
       style="fill:none;stroke:#9a916c;stroke-width:4.286479"
       gorn="0.1.0.5"
       connectorname="GND"
       cy="-69.693947"
       id="connector3pin"
       cx="15.448672"
       rx="7.506824"
       ry="6.8791828" />
    <ellipse
       style="fill:none;stroke:#9a916c;stroke-width:4.286479"
       gorn="0.1.0.6"
       connectorname="S"
       cy="-95.874352"
       id="connector4pin"
       cx="15.791636"
       rx="7.506824"
       ry="6.8791828" />
    <ellipse
       ry="5.5684657"
       rx="6.2313786"
       cy="8.2497387"
       cx="15.909903"
       id="ellipse8726"
       style="fill:#ffffff;fill-rule:evenodd;stroke-width:0" />
    <ellipse
       cx="15.963115"
       id="circle8649"
       cy="8.5013552"
       connectorname="VCC"
       gorn="0.1.0.4"
       style="fill:none;stroke:#9a916c;stroke-width:4.286479"
       rx="7.506824"
       ry="6.8791828" />
    <g
       transform="matrix(3.6582962,0,0,3.3524282,-3.5516055,-143.11216)"
       style="stroke-width:0"
       id="g8716">
      <title
         id="title8712">text:VCC</title>
      <text
         style="font-size:3.34080005px;font-family:OCRA;text-anchor:start;fill:#ffffff;stroke:none;stroke-width:0"
         id="text8714"
         y="23.040001"
         x="7.9200001"
         font-size="3.3408">+3V</text>
    </g>
    <g
       id="g8814">
      <path
         sodipodi:nodetypes="cc"
         d="m 36.312669,-107.72769 50.234116,-0.0378"
         id="path8805"
         inkscape:connector-curvature="0"
         style="fill:none;stroke:#8c8c8c;stroke-width:2.79263878" />
      <path
         sodipodi:nodetypes="ccc"
         style="fill:none;stroke:#8c8c8c;stroke-width:2.3932333"
         inkscape:connector-curvature="0"
         id="path8807"
         d="m 15.77856,-96.417009 5.841067,-4.034741 14.902415,-7.41631" />
      <path
         sodipodi:nodetypes="cc"
         d="M 100.67223,-99.762589 85.080182,-107.84358"
         id="path8809"
         inkscape:connector-curvature="0"
         style="fill:none;stroke:#8c8c8c;stroke-width:2.07511353" />
    </g>
    <ellipse
       style="fill:#ffffff;fill-rule:evenodd;stroke-width:0"
       id="path8718"
       cx="16.042486"
       cy="-95.960121"
       rx="6.2313786"
       ry="5.5684657" />
    <g
       transform="matrix(0,0.61314545,-0.72000001,0,103.82699,-96.893223)"
       id="breadboard-3">
      <rect
         id="connector0pin"
         x="0.5"
         y="3.5899999"
         width="1"
         height="1"
         style="fill:none" />
      <rect
         id="connector1pin"
         x="41.417"
         y="3.5899999"
         width="1"
         height="1"
         style="fill:none" />
      <line
         id="connector0leg"
         x1="1.455"
         y1="5.0450001"
         x2="2.9100001"
         y2="5.0450001"
         style="fill:none;stroke:#8c8c8c;stroke-width:2.91000009;stroke-linecap:round" />
      <line
         id="connector1leg"
         x1="41.462002"
         y1="5.0450001"
         x2="40.007"
         y2="5.0450001"
         style="fill:none;stroke:#8c8c8c;stroke-width:2.91000009;stroke-linecap:round" />
      <path
         d="M -6.8314081,5.045 H 50.244262"
         id="path6"
         inkscape:connector-curvature="0"
         style="fill:none;stroke:#8c8c8c;stroke-width:3.50252652" />
      <path
         id="body"
         d="m 14.233,0.688 c -0.5,-0.23 -1.36,-0.41 -1.91,-0.41 h -2.76 c -0.55,0 -1,0.45 -1,1 v 7.439 c 0,0.551 0.45,1 1,1 h 2.76 c 0.55,0 1.41,-0.189 1.91,-0.41 l 0.1,-0.049 c 0.5,-0.23 1.36,-0.41 1.91,-0.41 h 9.98 c 0.551,0 1.409,0.189 1.909,0.41 l 0.101,0.049 c 0.5,0.23 1.358,0.41 1.91,0.41 h 2.76 c 0.552,0 1,-0.449 1,-1 V 1.278 c 0,-0.55 -0.448,-1 -1,-1 h -2.76 c -0.552,0 -1.41,0.19 -1.91,0.41 l -0.101,0.05 c -0.5,0.23 -1.358,0.41 -1.909,0.41 h -9.98 c -0.55,0 -1.41,-0.19 -1.91,-0.41 z"
         inkscape:connector-curvature="0"
         style="fill:#d9b477" />
      <rect
         id="gold_band"
         x="30.582001"
         y="0.26899999"
         width="0.97600001"
         height="9.4379997"
         style="fill:#ad9f4e" />
      <rect
         id="band_rd_multiplier"
         x="22.462"
         y="1.148"
         width="2.5699999"
         height="7.6900001"
         style="fill:#000000" />
      <rect
         id="band_2_nd"
         x="17.323"
         y="1.148"
         width="2.5699999"
         height="7.6900001"
         style="fill:#ffff00" />
      <path
         id="band_1_st"
         d="m 14.762,0.888 c -0.16,-0.05 -0.31,-0.1 -0.43,-0.16 l -0.1,-0.05 c -0.5,-0.229 -1.36,-0.41 -1.91,-0.41 h -0.12 v 9.439 h 0.12 c 0.55,0 1.41,-0.189 1.91,-0.41 l 0.1,-0.049 c 0.12,-0.062 0.27,-0.111 0.43,-0.16 z"
         inkscape:connector-curvature="0"
         style="fill:#800080" />
      <path
         id="Shadow"
         d="m 32.932,5.68 v 0 c 0,0.527 -0.181,0.971 -0.41,0.971 h -2.67 c -0.528,0 -1.358,-0.078 -1.851,-0.17 L 27.9,6.459 C 27.421,6.369 26.582,6.289 26.048,6.289 H 16.4 c -0.53,0 -1.36,0.08 -1.85,0.17 L 14.45,6.48 C 13.97,6.571 13.14,6.65 12.6,6.65 H 12.16 10.77 10.34 C 9.81,6.65 9.37,7.058 9.37,7.546 V 7.889 8.11 8.35 c 0,0.5 0.44,0.896 0.97,0.896 h 2.25 c 0.53,0 1.36,-0.17 1.85,-0.371 l 0.1,-0.039 C 15.02,8.64 15.86,8.468 16.39,8.468 h 9.648 c 0.527,0 1.357,0.172 1.853,0.369 l 0.103,0.039 c 0.479,0.201 1.312,0.371 1.852,0.371 h 3.09 c 0.529,0 0.971,-0.41 0.971,-0.896 V 7.6 6.249 3.688 c -0.385,0.15 -0.975,0.57 -0.975,1.992 z"
         inkscape:connector-curvature="0"
         style="opacity:0.3" />
      <rect
         id="ShadowExtra"
         x="30.582001"
         y="4.8379998"
         width="0.97600001"
         height="4.3790002"
         style="opacity:0.4" />
      <path
         id="ReflexRight"
         d="m 27.432,1.508 c 0.319,0 0.682,-0.14 0.92,-0.24 0.28,-0.11 0.801,-0.2 1.342,-0.2 h 2.029 c 0.312,0 0.312,0.34 0.312,0.52 0,0.18 -0.021,0.53 -0.312,0.53 h -4.25 c -0.149,0 -0.32,-0.16 -0.32,-0.311 0.009,-0.119 0.109,-0.299 0.279,-0.299 z"
         inkscape:connector-curvature="0"
         style="opacity:0.25;fill:#ffffff" />
      <circle
         id="ReflexLeft"
         cx="9.7220001"
         cy="1.5779999"
         r="0.60000002"
         style="opacity:0.35;fill:#ffffff" />
      <rect
         id="Reflex_gold"
         x="30.582001"
         y="0.588"
         width="0.97600001"
         height="2.25"
         style="opacity:0.5;fill:#ffff33" />
      <rect
         id="Reflex_extra"
         x="30.582001"
         y="1.0880001"
         width="0.97600001"
         height="1.04"
         style="opacity:0.5;fill:#ffffff" />
    </g>
    <g
       id="g8791">
      <ellipse
         style="fill:#ffffff;fill-rule:evenodd;stroke-width:0"
         id="ellipse8785"
         cx="100.00165"
         cy="-100.39621"
         rx="3.9856844"
         ry="3.3785801" />
      <ellipse
         style="fill:none;stroke:#9a916c;stroke-width:2.67029619"
         gorn="0.1.0.6"
         connectorname="S"
         cy="-100.18329"
         id="ellipse8787"
         cx="100.18041"
         rx="4.8014789"
         ry="4.1738377" />
    </g>
    <g
       id="g8822"
       transform="matrix(1,0,0,-1,-0.15004016,-166.1056)">
      <path
         style="fill:none;stroke:#8c8c8c;stroke-width:2.79263878"
         inkscape:connector-curvature="0"
         id="path8816"
         d="m 36.312669,-107.72769 50.234116,-0.0378"
         sodipodi:nodetypes="cc" />
      <path
         d="m 15.77856,-96.417009 5.841067,-4.034741 14.902415,-7.41631"
         id="path8818"
         inkscape:connector-curvature="0"
         style="fill:none;stroke:#8c8c8c;stroke-width:2.3932333"
         sodipodi:nodetypes="ccc" />
      <path
         style="fill:none;stroke:#8c8c8c;stroke-width:2.07511353"
         inkscape:connector-curvature="0"
         id="path8820"
         d="M 100.32456,-99.152748 85.427852,-108.45342"
         sodipodi:nodetypes="cc" />
    </g>
    <ellipse
       ry="5.5684657"
       rx="6.2313786"
       cy="-69.443619"
       cx="15.379573"
       id="ellipse8722"
       style="fill:#ffffff;fill-rule:evenodd;stroke-width:0" />
    <g
       transform="matrix(3.6582962,0,0,3.3524282,77.087763,-125.15143)"
       style="stroke-width:0"
       id="g8832">
      <title
         id="title8828">text:SIG</title>
      <text
         style="font-size:3.34080005px;font-family:OCRA;text-anchor:start;fill:#ffffff;stroke:none;stroke-width:0"
         id="text8830"
         y="13.098409"
         x="6.9261951"
         font-size="3.3408">47ohm</text>
    </g>
    <g
       id="g8838"
       style="stroke-width:0"
       transform="matrix(3.6582962,0,0,3.3524282,41.800716,-22.545776)">
      <title
         id="title8834">text:SIG</title>
      <text
         font-size="3.3408"
         x="10.018033"
         y="14.845623"
         id="text8836"
         style="font-size:3.34080005px;font-family:OCRA;text-anchor:start;fill:#ffffff;stroke:none;stroke-width:0">RL-09B-A1</text>
    </g>
  </g>
</svg>
